<?xml version="1.0" encoding="UTF-8" standalone="no"?>
<!DOCTYPE svg PUBLIC "-//W3C//DTD SVG 1.1//EN" "http://www.w3.org/Graphics/SVG/1.1/DTD/svg11.dtd">
<svg width="100%" height="100%" viewBox="0 0 100 100" version="1.1" xmlns="http://www.w3.org/2000/svg" xmlns:xlink="http://www.w3.org/1999/xlink" xml:space="preserve" xmlns:serif="http://www.serif.com/" style="fill-rule:evenodd;clip-rule:evenodd;stroke-linejoin:round;stroke-miterlimit:2;">
    <g transform="matrix(6.53472e-17,1.0672,-1.0672,6.53472e-17,105.185,-4.02203)">
        <ellipse cx="53.601" cy="47.577" rx="19.04" ry="42.518" style="fill:rgb(255,0,0);"/>
        <clipPath id="_clip1">
            <ellipse cx="53.601" cy="47.577" rx="19.04" ry="42.518"/>
        </clipPath>
        <g clip-path="url(#_clip1)">
            <g transform="matrix(9.77268e-18,-0.1596,1,6.12323e-17,6.02475,81.8879)">
                <rect x="22.719" y="23.67" width="54.995" height="47.083" style="fill:white;"/>
            </g>
            <g transform="matrix(9.77268e-18,-0.1596,1,6.12323e-17,6.02475,66.188)">
                <rect x="22.719" y="23.67" width="54.995" height="47.083" style="fill:white;"/>
            </g>
            <g transform="matrix(1.89261e-17,-0.309087,1,6.12323e-17,6.02475,50.904)">
                <rect x="22.719" y="23.67" width="54.995" height="47.083" style="fill:white;"/>
            </g>
            <g transform="matrix(6.12323e-17,-1,1,6.12323e-17,6.02475,101.178)">
                <circle cx="84.141" cy="46.835" r="5.912" style="fill:rgb(43,43,43);"/>
            </g>
            <g transform="matrix(-0.467069,-0.884221,0.884221,-0.467069,48.2351,114.793)">
                <ellipse cx="84.593" cy="46.495" rx="2.476" ry="1.319" style="fill:white;"/>
            </g>
        </g>
    </g>
    <g transform="matrix(1.0672,0,0,1.0672,-2.79263,2.40758)">
        <path d="M20.774,26.814L2.751,24.803L2.751,32.479L20.774,47.814L20.774,26.814Z" style="fill:rgb(255,0,0);"/>
    </g>
    <g transform="matrix(1.0672,0,0,-1.0672,-2.79263,102.298)">
        <path d="M20.774,26.814L2.751,24.803L2.751,32.479L20.774,47.814L20.774,26.814Z" style="fill:rgb(255,0,0);"/>
    </g>
</svg>
